<svg width="19" height="19" viewBox="0 0 19 19" fill="none" xmlns="http://www.w3.org/2000/svg">
<path d="M17.5721 18.999C16.8453 18.529 16.1221 18.054 15.3913 17.5904C14.4863 17.0164 13.5747 16.4519 12.6662 15.8829C12.6101 15.8478 12.5555 15.8097 12.4793 15.7587C12.9722 15.5455 13.4385 15.3441 13.9514 15.1224C13.6709 14.738 13.4295 14.355 13.137 14.0136C11.8523 12.5135 10.213 11.6703 8.23058 11.4833C8.15595 11.4764 8.08032 11.4779 8.00569 11.4779C5.42027 11.4784 2.83485 11.4784 0.249927 11.4784C0.170291 11.4784 0.0901542 11.4784 0 11.4784C0 10.1529 0 8.84566 0 7.52014C0.0906551 7.52014 0.170291 7.52014 0.249927 7.52014C2.73468 7.52014 5.21993 7.5241 7.70468 7.51915C9.8238 7.5147 11.5688 6.6805 12.9922 5.15461C13.3528 4.76818 13.6539 4.33822 13.9188 3.86175C13.4375 3.65394 12.9712 3.45257 12.4748 3.23783C12.6446 3.13096 12.7904 3.03943 12.9361 2.9474C14.4477 1.99099 15.9588 1.03458 17.4699 0.0776803C17.5059 0.0549205 17.538 0.0262233 17.5721 0C17.5846 0 17.5971 0 17.6096 0C17.6146 0.0484883 17.6146 0.0979662 17.6256 0.145465C18.0163 1.80545 18.409 3.46494 18.7992 5.12492C18.8688 5.4208 18.9294 5.71865 19 6.04273C18.5042 5.83097 18.0419 5.63355 17.566 5.4302C17.1914 6.27627 16.7121 7.03279 16.1216 7.71954C15.5316 8.40629 14.8494 8.99112 14.0631 9.49975C15.6473 10.5244 16.8062 11.8777 17.5696 13.5688C18.0524 13.3625 18.5132 13.1656 18.995 12.9597C18.9865 13.0142 18.9845 13.0379 18.979 13.0607C18.6284 14.5777 18.2778 16.0947 17.9277 17.6117C17.821 18.0743 17.7153 18.5369 17.6096 19C17.5971 18.999 17.5846 18.999 17.5721 18.999Z" fill="black" fill-opacity="0.6"/>
</svg>
