<svg width="20" height="21" viewBox="0 0 20 21" fill="none" xmlns="http://www.w3.org/2000/svg">
<path d="M20 7.41388C20 11.5544 20 15.6949 20 19.8354C19.8917 20.1698 19.6698 20.3906 19.3359 20.4995C18.724 20.4995 18.112 20.4995 17.5 20.4995C17.5 17.2126 17.4927 13.9252 17.5073 10.6383C17.5099 10.1034 17.1781 9.66018 16.5318 9.66226C12.1771 9.6758 7.8224 9.6758 3.46823 9.66226C2.82708 9.66018 2.49062 10.0992 2.49271 10.6383C2.50729 13.9252 2.5 17.2126 2.5 20.4995C1.88802 20.4995 1.27604 20.4995 0.664062 20.4995C0.330208 20.3906 0.108333 20.1698 0 19.8354C0 15.6949 0 11.5544 0 7.41388C0.154167 7.25451 0.2875 7.06493 0.466146 6.94098C2.8099 5.31602 5.15885 3.69887 7.50937 2.08329C8.28385 1.55049 9.0651 1.02759 9.84375 0.5C9.94792 0.5 10.0521 0.5 10.1562 0.5C10.2661 0.566144 10.3802 0.62708 10.4859 0.699995C13.4984 2.7739 16.5099 4.84989 19.5234 6.92223C19.7182 7.05556 19.8953 7.19774 20 7.41388Z" fill="black" fill-opacity="0.6"/>
<path d="M10.7031 20.4995C10.4797 20.375 10.4135 20.1849 10.4156 19.9333C10.4255 18.912 10.4193 17.8902 10.4198 16.8688C10.4203 16.4673 10.5573 16.3308 10.9604 16.3298C11.3953 16.3288 11.8297 16.3298 12.2948 16.3298C12.2948 16.5334 12.2932 16.7194 12.2953 16.9053C12.3 17.3095 12.5516 17.5798 12.9198 17.5782C13.2839 17.5766 13.538 17.3022 13.5443 16.9001C13.5474 16.7188 13.5448 16.5376 13.5448 16.3298C13.6839 16.3298 13.8052 16.3298 13.9266 16.3298C14.2714 16.3298 14.6161 16.3246 14.9609 16.3319C15.2479 16.3376 15.4156 16.497 15.4172 16.7819C15.4229 17.8683 15.4193 18.9547 15.4198 20.0417C15.4198 20.263 15.3026 20.4031 15.1172 20.5C13.6458 20.4995 12.1745 20.4995 10.7031 20.4995Z" fill="black" fill-opacity="0.6"/>
<path d="M4.88281 20.4995C4.65052 20.3859 4.57552 20.1953 4.57708 19.9438C4.58385 18.9224 4.57969 17.9006 4.58021 16.8793C4.58073 16.4746 4.72656 16.3308 5.13646 16.3298C5.5651 16.3293 5.99323 16.3298 6.45625 16.3298C6.45625 16.5491 6.44948 16.7537 6.45781 16.9584C6.47031 17.2563 6.66094 17.4959 6.925 17.5631C7.19219 17.6308 7.48073 17.5214 7.61198 17.2766C7.66771 17.173 7.69167 17.0444 7.70104 16.9246C7.71562 16.7381 7.70469 16.5496 7.70469 16.3522C7.7625 16.3433 7.80521 16.3308 7.84792 16.3303C8.26458 16.3288 8.68073 16.3262 9.0974 16.3303C9.42292 16.3334 9.57812 16.4871 9.57917 16.81C9.58177 17.8772 9.57604 18.9443 9.58333 20.011C9.5849 20.2427 9.47865 20.387 9.29688 20.499C7.82552 20.4995 6.35417 20.4995 4.88281 20.4995Z" fill="black" fill-opacity="0.6"/>
<path d="M9.375 11.3367C9.375 11.5586 9.37135 11.7534 9.37552 11.9481C9.38333 12.3138 9.65312 12.5809 10.0062 12.5778C10.3505 12.5747 10.6146 12.3106 10.6234 11.9539C10.6286 11.7539 10.6245 11.5534 10.6245 11.3388C11.1417 11.3388 11.6411 11.3273 12.1396 11.344C12.3531 11.3513 12.4953 11.5237 12.4964 11.7403C12.501 12.8533 12.5016 13.9668 12.4969 15.0798C12.4958 15.3277 12.3229 15.496 12.0729 15.497C10.6927 15.5007 9.3125 15.5007 7.93229 15.497C7.67188 15.4965 7.5026 15.3267 7.50156 15.0663C7.49792 13.9663 7.49792 12.8658 7.50156 11.7659C7.50208 11.5268 7.64323 11.3492 7.87344 11.3414C8.36615 11.3252 8.85938 11.3367 9.375 11.3367Z" fill="black" fill-opacity="0.6"/>
</svg>
