<svg width="20" height="21" viewBox="0 0 20 21" fill="none" xmlns="http://www.w3.org/2000/svg">
<path d="M9.9951 0.500028C15.4796 0.487028 19.9905 4.97506 20 10.4651C20.0094 15.9811 15.6086 20.4381 10.1135 20.4991C4.5667 20.5621 0.0391981 16.137 0.000298079 10.592C-0.0386019 4.99801 4.4256 0.513028 9.9951 0.500028ZM3.9882 10.5C4.0004 10.676 4.0099 10.877 4.0288 11.078C4.3767 14.733 7.9267 17.2271 11.4828 16.3141C14.6121 15.5111 16.5522 12.374 15.8603 9.212C15.5658 7.864 14.8739 6.74804 13.8047 5.87204C13.4062 5.54504 12.8382 5.74002 12.7277 6.24002C12.6615 6.53902 12.7999 6.75403 13.0189 6.94803C14.3054 8.09003 14.87 9.52601 14.6021 11.222C14.1831 13.871 11.7562 15.555 9.1165 15.086C6.6818 14.653 4.9602 12.197 5.3859 9.76803C5.5948 8.57703 6.1633 7.599 7.1053 6.837C7.4221 6.581 7.4632 6.17202 7.2181 5.87802C6.9797 5.59202 6.574 5.55703 6.2678 5.80703C4.7885 7.01103 4.0438 8.57303 3.9882 10.5ZM9.331 7.501C9.331 8.265 9.3327 9.02906 9.3299 9.79306C9.3293 10.0321 9.4116 10.229 9.6061 10.369C9.8212 10.525 10.0551 10.551 10.293 10.429C10.5442 10.3 10.6648 10.085 10.6648 9.80203C10.6642 8.28103 10.6653 6.76102 10.6642 5.24002C10.6637 4.80102 10.3852 4.498 9.9918 4.501C9.5983 4.505 9.33209 4.805 9.33159 5.251C9.33049 6.002 9.331 6.751 9.331 7.501Z" fill="black" fill-opacity="0.6"/>
</svg>
