<svg width="19" height="19" viewBox="0 0 19 19" fill="none" xmlns="http://www.w3.org/2000/svg">
<path d="M17.5721 18.999C16.8453 18.529 16.1221 18.054 15.3913 17.59C14.4863 17.016 13.5747 16.452 12.6662 15.883C12.6101 15.848 12.5555 15.81 12.4793 15.759C12.9722 15.545 13.4385 15.344 13.9514 15.122C13.6709 14.738 13.4295 14.355 13.137 14.014C11.8523 12.513 10.213 11.67 8.2306 11.483C8.156 11.476 8.0803 11.478 8.0057 11.478C5.4203 11.478 2.8348 11.478 0.249901 11.478C0.170301 11.478 0.0902 11.478 0 11.478C0 10.153 0 8.846 0 7.52C0.0907 7.52 0.170301 7.52 0.249901 7.52C2.7347 7.52 5.2199 7.524 7.7047 7.519C9.8238 7.515 11.5688 6.681 12.9922 5.155C13.3528 4.768 13.6539 4.338 13.9188 3.862C13.4375 3.654 12.9712 3.453 12.4748 3.238C12.6446 3.131 12.7904 3.039 12.9361 2.947C14.4477 1.991 15.9588 1.035 17.4699 0.0780029C17.5059 0.0550029 17.538 0.026 17.5721 0C17.5846 0 17.5971 0 17.6096 0C17.6146 0.048 17.6146 0.0979966 17.6256 0.144997C18.0163 1.805 18.409 3.465 18.7992 5.125C18.8688 5.421 18.9294 5.719 19 6.043C18.5042 5.831 18.0419 5.634 17.566 5.43C17.1914 6.276 16.7121 7.033 16.1216 7.72C15.5316 8.406 14.8494 8.991 14.0631 9.5C15.6473 10.524 16.8062 11.878 17.5696 13.569C18.0524 13.362 18.5132 13.166 18.995 12.96C18.9865 13.014 18.9845 13.038 18.979 13.061C18.6284 14.578 18.2778 16.095 17.9277 17.612C17.821 18.074 17.7153 18.537 17.6096 19C17.5971 18.999 17.5846 18.999 17.5721 18.999Z" fill="black" fill-opacity="0.6"/>
</svg>
