<svg width="20" height="21" viewBox="0 0 20 21" fill="none" xmlns="http://www.w3.org/2000/svg">
<path d="M20 7.414C20 11.554 20 15.695 20 19.835C19.8917 20.17 19.6698 20.391 19.3359 20.499C18.724 20.499 18.112 20.499 17.5 20.499C17.5 17.213 17.4927 13.925 17.5073 10.638C17.5099 10.103 17.1781 9.66 16.5318 9.662C12.1771 9.676 7.8224 9.676 3.4682 9.662C2.8271 9.66 2.4906 10.099 2.4927 10.638C2.5073 13.925 2.5 17.213 2.5 20.499C1.888 20.499 1.276 20.499 0.664101 20.499C0.330201 20.391 0.1083 20.17 0 19.835C0 15.695 0 11.554 0 7.414C0.1542 7.255 0.287499 7.06499 0.466099 6.94099C2.8099 5.31599 5.1589 3.69899 7.5094 2.08299C8.2839 1.54999 9.0651 1.028 9.8438 0.5C9.9479 0.5 10.0521 0.5 10.1562 0.5C10.2661 0.566 10.3802 0.626997 10.4859 0.699997C13.4984 2.774 16.5099 4.85 19.5234 6.922C19.7182 7.056 19.8953 7.198 20 7.414Z" fill="black" fill-opacity="0.6"/>
<path d="M10.7031 20.499C10.4797 20.375 10.4135 20.185 10.4156 19.933C10.4255 18.912 10.4193 17.89 10.4198 16.869C10.4203 16.467 10.5573 16.331 10.9604 16.33C11.3953 16.329 11.8297 16.33 12.2948 16.33C12.2948 16.533 12.2932 16.719 12.2953 16.905C12.3 17.309 12.5516 17.58 12.9198 17.578C13.2839 17.577 13.538 17.302 13.5443 16.9C13.5474 16.719 13.5448 16.538 13.5448 16.33C13.6839 16.33 13.8052 16.33 13.9266 16.33C14.2714 16.33 14.6161 16.325 14.9609 16.332C15.2479 16.338 15.4156 16.497 15.4172 16.782C15.4229 17.868 15.4193 18.955 15.4198 20.042C15.4198 20.263 15.3026 20.403 15.1172 20.5C13.6458 20.499 12.1745 20.499 10.7031 20.499Z" fill="black" fill-opacity="0.6"/>
<path d="M4.8828 20.499C4.6505 20.386 4.5755 20.195 4.5771 19.944C4.5839 18.922 4.5797 17.901 4.5802 16.879C4.5807 16.475 4.7266 16.331 5.1365 16.33C5.5651 16.329 5.9932 16.33 6.4562 16.33C6.4562 16.549 6.4495 16.754 6.4578 16.958C6.4703 17.256 6.66091 17.496 6.92501 17.563C7.19221 17.631 7.4807 17.521 7.612 17.277C7.6677 17.173 7.6917 17.044 7.701 16.925C7.7156 16.738 7.7047 16.55 7.7047 16.352C7.7625 16.343 7.8052 16.331 7.8479 16.33C8.2646 16.329 8.6807 16.326 9.0974 16.33C9.4229 16.333 9.5781 16.487 9.5792 16.81C9.5818 17.877 9.576 18.944 9.5833 20.011C9.5849 20.243 9.4786 20.387 9.2969 20.499C7.8255 20.499 6.3542 20.499 4.8828 20.499Z" fill="black" fill-opacity="0.6"/>
<path d="M9.375 11.337C9.375 11.559 9.3714 11.753 9.3755 11.948C9.3833 12.314 9.6531 12.581 10.0062 12.578C10.3505 12.575 10.6146 12.311 10.6234 11.954C10.6286 11.754 10.6245 11.553 10.6245 11.339C11.1417 11.339 11.6411 11.327 12.1396 11.344C12.3531 11.351 12.4953 11.524 12.4964 11.74C12.501 12.853 12.5016 13.967 12.4969 15.08C12.4958 15.328 12.3229 15.496 12.0729 15.497C10.6927 15.501 9.31249 15.501 7.93229 15.497C7.67189 15.496 7.5026 15.327 7.5016 15.066C7.4979 13.966 7.4979 12.866 7.5016 11.766C7.5021 11.527 7.6432 11.349 7.8734 11.341C8.3661 11.325 8.8594 11.337 9.375 11.337Z" fill="black" fill-opacity="0.6"/>
</svg>
