<svg width="20" height="21" viewBox="0 0 20 21" fill="none" xmlns="http://www.w3.org/2000/svg">
<path d="M9.68587e-05 10.499C9.68587e-05 7.45799 9.68587e-05 4.41499 9.68587e-05 1.37399C9.68587e-05 0.761989 0.256699 0.504994 0.865499 0.503994C1.6017 0.503994 2.3385 0.509996 3.0748 0.499996C3.2337 0.497996 3.289 0.548001 3.3253 0.699001C3.514 1.486 3.7146 2.27099 3.9133 3.05499C3.9925 3.36699 4.0895 3.44101 4.41449 3.44101C5.9988 3.44201 7.58309 3.44201 9.16739 3.44101C9.47869 3.44101 9.5781 3.36299 9.6537 3.06399C9.8549 2.27299 10.0578 1.48098 10.2483 0.687985C10.2828 0.542985 10.3387 0.499003 10.4845 0.501003C11.2582 0.508003 12.0314 0.502001 12.8051 0.505001C13.2639 0.507001 13.5663 0.800987 13.5681 1.25299C13.5716 2.19699 13.5645 3.14199 13.574 4.08599C13.5758 4.24199 13.4996 4.28799 13.3824 4.33499C11.6136 5.04999 9.8465 5.77101 8.0753 6.48001C7.8986 6.55101 7.85149 6.639 7.85209 6.819C7.85809 8.961 7.8593 11.103 7.8545 13.245C7.8527 13.926 8.1438 14.401 8.7639 14.695C10.3131 15.432 11.8552 16.183 13.4032 16.923C13.5294 16.983 13.574 17.052 13.5728 17.191C13.5663 18.039 13.5716 18.887 13.5687 19.735C13.5669 20.206 13.2729 20.499 12.7991 20.499C8.7901 20.5 4.7811 20.5 0.772096 20.499C0.291196 20.499 0.000699581 20.202 0.000699581 19.714C-0.000400419 16.643 9.68587e-05 13.571 9.68587e-05 10.499ZM2.8486 8.359C3.6366 8.363 4.2835 7.72099 4.2847 6.93399C4.2853 6.15499 3.6533 5.51199 2.8766 5.50399C2.0868 5.49499 1.4357 6.13199 1.4297 6.91699C1.4232 7.70599 2.0624 8.356 2.8486 8.359ZM4.2847 11.207C4.2806 10.42 3.6318 9.782 2.8426 9.789C2.0654 9.795 1.4309 10.436 1.4297 11.214C1.4285 12.001 2.0737 12.645 2.8611 12.644C3.6473 12.642 4.2889 11.995 4.2847 11.207ZM4.2847 15.511C4.2889 14.722 3.6491 14.075 2.8617 14.074C2.082 14.072 1.4387 14.704 1.4297 15.48C1.4208 16.27 2.0564 16.922 2.8415 16.929C3.63 16.936 4.28 16.298 4.2847 15.511Z" fill="black" fill-opacity="0.6"/>
<path d="M13.927 16.214C13.3479 15.955 12.8009 15.71 12.2534 15.466C11.2029 14.997 10.1542 14.525 9.1008 14.062C8.7389 13.903 8.5657 13.651 8.5669 13.251C8.5735 11.452 8.5699 9.65301 8.5699 7.85501C8.5699 7.79601 8.5699 7.73601 8.5699 7.65201C8.6592 7.68601 8.733 7.711 8.8038 7.742C10.4453 8.471 12.0855 9.203 13.7288 9.927C13.8787 9.993 13.9317 10.07 13.9311 10.238C13.924 12.148 13.9264 14.059 13.9264 15.968C13.927 16.035 13.927 16.102 13.927 16.214Z" fill="black" fill-opacity="0.6"/>
<path d="M19.9887 7.65399C19.9923 7.72999 19.9976 7.78699 19.9976 7.84399C19.9982 9.65199 19.9952 11.46 20 13.267C20.0012 13.647 19.8369 13.897 19.4917 14.051C17.9306 14.744 16.3719 15.442 14.812 16.139C14.7661 16.159 14.7185 16.176 14.6525 16.203C14.6483 16.12 14.6417 16.056 14.6417 15.993C14.6411 14.066 14.6429 12.139 14.6382 10.213C14.6382 10.078 14.6691 10.005 14.803 9.94601C16.4814 9.20701 18.1568 8.46 19.8333 7.716C19.8792 7.695 19.9268 7.67799 19.9887 7.65399Z" fill="black" fill-opacity="0.6"/>
<path d="M19.5965 7.03C19.4917 7.08 19.4155 7.11899 19.337 7.15399C17.7152 7.87499 16.0939 8.59701 14.4697 9.31201C14.3793 9.35201 14.2466 9.373 14.162 9.336C12.4688 8.593 10.7803 7.83902 9.0907 7.08802C9.0603 7.07402 9.0311 7.057 8.971 7.025C9.0859 6.971 9.1698 6.93 9.2561 6.892C10.8041 6.225 12.3527 5.56002 13.8996 4.89002C14.137 4.78702 14.3626 4.75899 14.6084 4.86499C16.2302 5.56799 17.8538 6.26499 19.4768 6.96399C19.5084 6.97699 19.5376 6.996 19.5965 7.03Z" fill="black" fill-opacity="0.6"/>
<path d="M9.5573 0.515015C9.3716 1.25801 9.1901 1.98401 9.0062 2.71701C7.5272 2.71701 6.0583 2.71701 4.5639 2.71701C4.3817 1.99001 4.1984 1.25901 4.0115 0.515015C5.8625 0.515015 7.6944 0.515015 9.5573 0.515015Z" fill="black" fill-opacity="0.6"/>
</svg>
