<svg width="20" height="19" viewBox="0 0 20 19" fill="none" xmlns="http://www.w3.org/2000/svg">
<path d="M16.6186 9.504C16.2735 9.504 15.9958 9.51299 15.7192 9.49899C15.6312 9.49399 15.5127 9.44499 15.4714 9.37799C15.4377 9.32299 15.4736 9.19301 15.5209 9.12601C16.1822 8.18301 16.8501 7.24501 17.519 6.30701C17.6668 6.10001 17.7994 6.10201 17.9483 6.31101C18.6124 7.24401 19.2765 8.17702 19.9335 9.11402C19.984 9.18602 20.0204 9.319 19.9873 9.384C19.9547 9.449 19.827 9.49199 19.7373 9.49899C19.5216 9.51499 19.3042 9.504 19.0673 9.504C19.0526 9.725 19.0401 9.938 19.0243 10.151C18.8281 12.738 17.7576 14.899 15.8219 16.625C14.3857 17.905 12.6983 18.678 10.7887 18.916C8.0113 19.261 5.5224 18.544 3.3764 16.748C1.5864 15.249 0.485903 13.327 0.128403 11.026C-0.320497 8.135 0.407703 5.54201 2.314 3.31101C3.8046 1.56601 5.711 0.508997 7.9776 0.132997C9.9546 -0.194003 11.8571 0.0839906 13.6678 0.950991C13.9362 1.07899 13.9531 1.19401 13.7406 1.40701C13.3097 1.83901 12.8706 2.264 12.4467 2.703C12.2565 2.899 12.0674 2.93299 11.8076 2.84699C8.41231 1.71199 4.8035 3.201 3.1955 6.392C1.306 10.141 3.23131 14.814 7.21791 16.155C11.28 17.521 15.5252 15.123 16.4322 10.939C16.5316 10.479 16.5555 10.004 16.6186 9.504Z" fill="black" fill-opacity="0.6"/>
<path d="M8.7406 10.158C9.3106 9.60998 9.854 9.09901 10.3833 8.57501C10.9952 7.96901 11.5897 7.34598 12.2022 6.73998C12.7548 6.19298 13.6613 6.42201 13.8623 7.15701C13.9699 7.55001 13.8493 7.88598 13.5629 8.17498C12.6701 9.07498 11.7826 9.981 10.8914 10.884C10.4529 11.327 10.0127 11.77 9.5709 12.21C9.0829 12.697 8.515 12.698 8.0308 12.216C7.1755 11.364 6.318 10.515 5.4675 9.65798C4.9078 9.09398 5.1252 8.19098 5.8697 7.98498C6.2539 7.87798 6.59241 7.98101 6.87551 8.26501C7.45541 8.84501 8.0379 9.42299 8.6177 10.004C8.6699 10.056 8.7107 10.12 8.7406 10.158Z" fill="black" fill-opacity="0.6"/>
</svg>
