<svg width="21" height="21" viewBox="0 0 21 21" fill="none" xmlns="http://www.w3.org/2000/svg">
<path d="M16.118 13.655C16.0198 13.696 15.9523 13.715 15.8958 13.75C15.7576 13.837 15.6511 13.803 15.5337 13.701C15.3176 13.514 15.0636 13.417 14.7756 13.517C14.6565 13.558 14.5424 13.629 14.4448 13.709C14.3087 13.82 14.1886 13.95 14.0641 14.075C13.7475 14.391 13.7256 14.772 14.0004 15.125C14.1458 15.311 14.1529 15.562 13.9889 15.719C13.9319 15.773 13.8156 15.777 13.7245 15.787C13.3745 15.826 13.1051 15.997 13.047 16.333C12.9932 16.644 12.9976 16.974 13.0426 17.287C13.0898 17.617 13.3805 17.811 13.7536 17.849C13.8655 17.861 13.9933 17.838 14.0339 17.991C14.0767 18.152 14.2144 18.282 14.0383 18.476C13.6943 18.855 13.7344 19.232 14.1025 19.593C14.204 19.693 14.3043 19.794 14.408 19.891C14.7531 20.22 15.1311 20.239 15.5151 19.949C15.6149 19.874 15.6923 19.778 15.8541 19.858C16.022 19.941 16.1992 19.984 16.1761 20.224C16.1684 20.307 16.2019 20.393 16.2206 20.499C16.1438 20.499 16.0768 20.499 16.0105 20.499C11.1763 20.498 6.3416 20.498 1.5074 20.497C0.569403 20.496 -0.0280981 19.908 0.00100193 18.996C0.0120019 18.65 0.0334039 18.297 0.111304 17.961C0.683504 15.502 2.22771 13.934 4.70951 13.241C5.13741 13.122 5.5719 13.024 5.9971 12.898C6.5254 12.741 6.98071 12.843 7.38391 13.207C7.77401 13.56 8.2073 13.85 8.706 14.039C9.5766 14.369 10.4187 14.284 11.2142 13.831C11.5428 13.643 11.85 13.41 12.1358 13.164C12.5231 12.83 12.9482 12.699 13.4447 12.837C14.2336 13.055 15.0203 13.283 15.8064 13.511C15.9035 13.539 15.9913 13.595 16.118 13.655Z" fill="black" fill-opacity="0.6"/>
<path d="M9.7582 6.50499C9.0456 6.50499 8.3324 6.49298 7.6204 6.50798C6.8951 6.52298 6.2829 6.27597 5.7497 5.81297C5.6218 5.70197 5.5055 5.57398 5.3646 5.48198C5.178 5.36098 5.149 5.20198 5.155 5.00398C5.1956 3.71498 5.6339 2.554 6.391 1.515C6.8671 0.861 7.5617 0.533 8.3823 0.515C9.2935 0.495 10.2053 0.495 11.1165 0.515C11.9696 0.534 12.6778 0.881 13.1611 1.571C13.8869 2.605 14.3197 3.74599 14.351 5.01399C14.3559 5.20399 14.3 5.33297 14.1546 5.48097C13.3866 6.26197 12.4721 6.60799 11.3606 6.51299C10.8307 6.46799 10.2925 6.50499 9.7582 6.50499Z" fill="black" fill-opacity="0.6"/>
<path d="M14.6938 5.59C15.0932 6.053 14.825 6.75901 14.2149 6.88101C14.08 6.90701 14.0438 6.95101 14.0284 7.07901C13.8655 8.46501 13.5314 9.80101 12.7634 11.002C12.302 11.723 11.709 12.317 10.9432 12.734C10.1493 13.166 9.3457 13.168 8.553 12.737C7.3718 12.096 6.6362 11.086 6.1386 9.89099C5.7546 8.96799 5.5549 8.00101 5.443 7.01401C5.4392 6.98101 5.4337 6.94901 5.4298 6.92001C4.6892 6.73001 4.399 6.13201 4.8061 5.58801C4.9334 5.69501 5.0628 5.799 5.1857 5.909C5.5911 6.273 6.0102 6.62501 6.5484 6.78101C6.8468 6.86701 7.1645 6.92901 7.4739 6.93201C8.9957 6.94701 10.518 6.938 12.0398 6.939C12.8045 6.939 13.4496 6.64801 14.018 6.17001C14.2457 5.98001 14.4684 5.784 14.6938 5.59Z" fill="black" fill-opacity="0.6"/>
<path d="M18.8 14.349C18.9514 14.232 19.0941 14.116 19.2411 14.007C19.4205 13.875 19.5516 13.882 19.7167 14.034C19.8462 14.153 19.9724 14.276 20.0947 14.402C20.2264 14.538 20.2357 14.687 20.1172 14.836C20.0003 14.985 19.8802 15.13 19.7754 15.259C19.8857 15.541 19.9866 15.809 20.0985 16.071C20.1166 16.114 20.1814 16.154 20.2307 16.163C20.392 16.191 20.5572 16.2 20.7195 16.226C20.9 16.253 20.9977 16.36 20.9988 16.541C21.0004 16.722 21.0004 16.903 20.9988 17.083C20.9971 17.273 20.8918 17.406 20.7036 17.401C20.2818 17.391 20.0744 17.554 19.9263 17.963C19.8127 18.277 19.8012 18.464 20.0349 18.702C20.2812 18.954 20.2576 19.067 20.008 19.312C19.9065 19.411 19.8067 19.513 19.7019 19.609C19.562 19.737 19.3854 19.765 19.2608 19.629C18.9641 19.307 18.6848 19.319 18.2887 19.496C17.9821 19.633 17.8521 19.763 17.8444 20.085C17.8356 20.435 17.7286 20.502 17.3616 20.5C17.2793 20.499 17.1971 20.497 17.1148 20.496C16.7011 20.491 16.6249 20.45 16.6073 20.045C16.5942 19.739 16.496 19.566 16.1761 19.517C16.0653 19.5 15.9523 19.444 15.8601 19.379C15.7076 19.271 15.604 19.312 15.4696 19.419C14.9681 19.821 14.9643 19.816 14.504 19.367C14.4651 19.329 14.4256 19.293 14.3877 19.254C14.2204 19.081 14.1946 18.93 14.3702 18.762C14.6489 18.496 14.6637 18.266 14.5051 17.902C14.3526 17.553 14.1815 17.407 13.8106 17.406C13.5473 17.406 13.4595 17.291 13.4562 17.04C13.454 16.887 13.454 16.732 13.4562 16.579C13.4601 16.349 13.5462 16.252 13.7794 16.217C13.9214 16.196 14.0679 16.196 14.2067 16.162C14.2687 16.148 14.3378 16.086 14.3663 16.029C14.4689 15.819 14.5616 15.603 14.6445 15.385C14.6653 15.33 14.6582 15.245 14.6264 15.197C14.5452 15.073 14.4426 14.964 14.3493 14.848C14.2243 14.694 14.2243 14.541 14.3658 14.399C14.4942 14.269 14.6247 14.14 14.7586 14.016C14.8985 13.886 15.0504 13.881 15.2035 13.997C15.3549 14.111 15.5047 14.228 15.6369 14.33C15.9205 14.223 16.1882 14.126 16.451 14.017C16.5009 13.997 16.5514 13.931 16.5623 13.878C16.5936 13.728 16.6051 13.574 16.6238 13.421C16.6474 13.23 16.7642 13.137 16.9546 13.132C17.1395 13.128 17.3249 13.128 17.5097 13.133C17.6908 13.138 17.8043 13.228 17.8312 13.409C17.8597 13.6 17.8296 13.836 17.9349 13.969C18.0331 14.094 18.2772 14.106 18.4533 14.178C18.5669 14.225 18.6733 14.286 18.8 14.349ZM17.2294 15.475C16.4702 15.474 15.8525 16.067 15.847 16.802C15.8415 17.544 16.4636 18.159 17.2234 18.162C17.975 18.165 18.5987 17.562 18.6031 16.828C18.608 16.076 17.9996 15.477 17.2294 15.475Z" fill="black" fill-opacity="0.6"/>
</svg>
