<svg width="20" height="21" viewBox="0 0 20 21" fill="none" xmlns="http://www.w3.org/2000/svg">
<path d="M10.0247 0.5C10.3917 0.716 10.7587 0.932003 11.1257 1.147C11.1919 1.186 11.2575 1.22601 11.3433 1.27701C11.2708 1.32301 11.2189 1.35899 11.1638 1.39099C9.9284 2.09299 8.6908 2.793 7.458 3.5C7.3325 3.572 7.243 3.57099 7.1196 3.49799C6.7362 3.26799 6.3443 3.053 5.9249 2.814C6.0059 2.765 6.0684 2.726 6.1325 2.689C7.351 1.997 8.57 1.305 9.7885 0.612C9.8442 0.581 9.8929 0.538007 9.9448 0.501007C9.9718 0.500007 9.9983 0.5 10.0247 0.5Z" fill="black" fill-opacity="0.6"/>
<path d="M8.0389 20.5C7.7868 20.397 7.5845 20.246 7.5792 19.952C7.5734 19.649 7.7392 19.441 7.9986 19.294C8.4048 19.064 8.8089 18.83 9.2145 18.598C9.2489 18.579 9.2839 18.56 9.3199 18.544C9.6514 18.394 10.0163 18.48 10.182 18.747C10.352 19.021 10.2588 19.394 9.9532 19.603C9.7801 19.721 9.5931 19.82 9.4094 19.922C9.0599 20.117 8.7083 20.308 8.3577 20.5C8.2507 20.5 8.1448 20.5 8.0389 20.5Z" fill="black" fill-opacity="0.6"/>
<path d="M10.2906 19.765C10.6374 19.29 10.6798 18.885 10.4335 18.538C10.1815 18.182 9.7727 18.076 9.2044 18.227C9.251 17.868 9.16999 17.553 8.87079 17.324C8.57959 17.102 8.24969 17.094 7.88639 17.185C7.94729 16.573 7.6756 16.198 7.083 16.073C7.1249 15.924 7.1847 15.783 7.2001 15.637C7.2366 15.3 7.10999 15.02 6.82299 14.829C6.48619 14.604 6.1214 14.596 5.7692 14.778C5.3715 14.983 4.9892 15.217 4.5999 15.438C4.538 15.473 4.475 15.508 4.3505 15.578C4.3315 15.266 4.28699 14.996 4.30819 14.731C4.32349 14.539 4.27589 14.435 4.11119 14.338C3.65789 14.071 3.21459 13.789 2.74969 13.502C3.49209 12.339 4.22819 11.186 4.97219 10.02C5.44509 10.312 5.9053 10.592 6.3597 10.881C6.4989 10.97 6.60169 10.979 6.74939 10.877C7.20479 10.561 7.72269 10.532 8.25229 10.626C8.75909 10.716 9.2225 10.918 9.6853 11.193C9.617 11.243 9.5619 11.285 9.5052 11.326C9.0858 11.621 8.6595 11.908 8.2481 12.214C7.7757 12.564 7.5925 13.077 7.7397 13.57C7.9738 14.354 8.8571 14.654 9.582 14.186C9.9246 13.965 10.2524 13.721 10.5871 13.488C10.7598 13.368 10.9324 13.247 11.0881 13.138C12.2219 13.975 13.443 14.66 14.6144 15.421C14.8516 15.575 15.0958 15.719 15.3314 15.875C15.4236 15.936 15.5141 16.007 15.583 16.092C15.7731 16.323 15.789 16.622 15.6364 16.835C15.4808 17.053 15.1747 17.14 14.8882 17.037C14.7902 17.002 14.6975 16.947 14.6086 16.892C13.8926 16.447 13.1782 16.001 12.4633 15.555C12.413 15.524 12.3606 15.474 12.3087 15.474C12.2468 15.474 12.1636 15.502 12.1287 15.547C12.1011 15.582 12.1149 15.673 12.1435 15.719C12.1753 15.77 12.2441 15.801 12.2992 15.835C13.0739 16.321 13.8513 16.804 14.6223 17.296C14.741 17.372 14.8543 17.475 14.9316 17.591C15.0762 17.808 15.0862 18.046 14.9332 18.27C14.7966 18.469 14.517 18.564 14.2612 18.486C14.1314 18.447 14.0054 18.379 13.8926 18.303C13.1449 17.799 12.4014 17.29 11.6563 16.783C11.6076 16.749 11.5583 16.695 11.507 16.692C11.4392 16.688 11.3454 16.705 11.3063 16.75C11.2761 16.784 11.2973 16.883 11.3259 16.939C11.3497 16.985 11.4159 17.012 11.4646 17.045C12.0847 17.467 12.7075 17.886 13.3239 18.313C13.4404 18.394 13.5548 18.494 13.6315 18.609C13.7766 18.827 13.7856 19.064 13.631 19.288C13.4928 19.487 13.2169 19.58 12.9585 19.502C12.8287 19.463 12.7001 19.398 12.591 19.318C11.9047 18.82 11.2236 18.314 10.5405 17.81C10.4982 17.779 10.4579 17.731 10.4108 17.724C10.3478 17.714 10.2456 17.714 10.2212 17.75C10.1873 17.801 10.1942 17.892 10.2122 17.957C10.2233 17.998 10.2874 18.026 10.3292 18.058C10.871 18.464 11.4138 18.87 11.9555 19.276C12.0132 19.319 12.072 19.362 12.1234 19.413C12.3606 19.645 12.4088 19.994 12.2404 20.232C12.0731 20.469 11.7119 20.558 11.4185 20.405C11.0404 20.207 10.6756 19.985 10.2906 19.765Z" fill="black" fill-opacity="0.6"/>
<path d="M14.9983 10.021C15.7402 11.183 16.4742 12.333 17.2198 13.5C16.9709 13.655 16.7268 13.806 16.4822 13.958C16.3815 14.02 16.2841 14.09 16.1787 14.143C15.8382 14.316 15.557 14.495 15.6756 14.968C15.7244 15.161 15.6116 15.393 15.5671 15.638C14.5524 14.999 13.5807 14.387 12.6413 13.797C13.0194 13.649 13.4022 13.501 13.783 13.348C13.8375 13.327 13.9053 13.301 13.9318 13.257C13.9699 13.194 13.9752 13.112 13.9948 13.039C13.9202 13.02 13.8333 12.969 13.7729 12.991C13.6315 13.041 13.506 13.132 13.3684 13.195C13.0284 13.35 12.6757 13.451 12.2939 13.409C11.8957 13.366 11.5769 13.185 11.3502 12.864C11.2411 12.709 11.141 12.699 10.9906 12.807C10.4876 13.166 9.9787 13.518 9.4713 13.871C9.2495 14.026 9.0085 14.13 8.7294 14.08C8.167 13.979 7.8562 13.383 8.1109 12.879C8.1798 12.743 8.2761 12.599 8.3995 12.514C9.1446 11.997 9.8812 11.465 10.6597 11.001C11.2311 10.66 11.8819 10.489 12.5634 10.623C12.797 10.669 13.0263 10.774 13.2344 10.892C13.3726 10.969 13.4647 10.972 13.5918 10.891C14.0536 10.599 14.5196 10.316 14.9983 10.021Z" fill="black" fill-opacity="0.6"/>
<path d="M10.1555 10.002C10.1518 9.92401 10.1476 9.86801 10.1476 9.81201C10.1471 8.40101 10.1476 6.989 10.1471 5.577C10.1471 5.479 10.1439 5.39899 10.2577 5.33499C11.5371 4.61599 12.8118 3.889 14.088 3.164C14.1198 3.146 14.1558 3.13399 14.2082 3.11099C14.213 3.18599 14.2194 3.242 14.2194 3.298C14.2199 4.71 14.2188 6.122 14.2215 7.534C14.2215 7.647 14.2008 7.72399 14.0891 7.78699C12.8219 8.50099 11.5578 9.22099 10.2927 9.93799C10.2551 9.96099 10.2133 9.97601 10.1555 10.002Z" fill="black" fill-opacity="0.6"/>
<path d="M5.7501 3.08899C6.2172 3.35399 6.6467 3.59299 7.0698 3.84299C7.109 3.86599 7.1222 3.955 7.1233 4.013C7.1281 4.339 7.1302 4.66401 7.1233 4.98901C7.1206 5.11401 7.1598 5.196 7.2726 5.259C7.5957 5.437 7.91291 5.62499 8.23481 5.80399C8.41861 5.90599 8.52821 5.84499 8.53241 5.63599C8.53881 5.32699 8.534 5.01601 8.534 4.66901C8.9672 4.91601 9.366 5.14 9.7615 5.371C9.796 5.391 9.8203 5.45599 9.8203 5.49899C9.8235 6.98999 9.823 8.48001 9.823 10.006C9.7425 9.96701 9.68051 9.94099 9.62281 9.90799C8.39161 9.20899 7.1625 8.508 5.9291 7.814C5.7989 7.74 5.7459 7.66401 5.7464 7.51001C5.7533 6.11801 5.75071 4.725 5.75071 3.332C5.75011 3.268 5.7501 3.20399 5.7501 3.08899Z" fill="black" fill-opacity="0.6"/>
<path d="M20 12.874C19.9259 12.964 19.8681 13.079 19.7739 13.14C19.3211 13.433 18.8593 13.712 18.3991 13.994C18.1481 14.148 17.9999 14.113 17.8383 13.86C17.1129 12.727 16.3895 11.592 15.665 10.458C15.4225 10.078 15.1789 9.69799 14.9385 9.31699C14.7738 9.05699 14.8077 8.91702 15.0741 8.75202C15.5157 8.47702 15.9579 8.20401 16.4006 7.93201C16.6564 7.77601 16.8137 7.812 16.9768 8.068C17.9406 9.576 18.9038 11.084 19.8655 12.594C19.9137 12.669 19.9439 12.755 20 12.874ZM16.4318 8.66599C15.9997 8.66699 15.6539 9.01 15.6539 9.438C15.6534 9.866 16.0003 10.208 16.434 10.206C16.8666 10.205 17.2145 9.86101 17.214 9.43601C17.2135 9.01101 16.8618 8.66499 16.4318 8.66599Z" fill="black" fill-opacity="0.6"/>
<path d="M1.8441 14.118C1.725 14.065 1.6487 14.041 1.5831 14.001C1.1282 13.723 0.674901 13.443 0.222601 13.161C-0.0272994 13.005 -0.0622972 12.854 0.0950028 12.606C1.0609 11.092 2.0274 9.57799 2.9949 8.06399C3.1574 7.80999 3.3131 7.776 3.5721 7.935C4.0153 8.207 4.4575 8.48 4.8986 8.754C5.1618 8.918 5.1946 9.05901 5.0273 9.32101C4.0651 10.831 3.1034 12.34 2.1349 13.845C2.065 13.956 1.9395 14.032 1.8441 14.118ZM4.3156 9.44601C4.3193 9.01801 3.9782 8.67198 3.5461 8.66598C3.1167 8.65998 2.7597 9.00501 2.756 9.42801C2.7523 9.85501 3.0934 10.199 3.5276 10.206C3.9597 10.214 4.3119 9.87401 4.3156 9.44601Z" fill="black" fill-opacity="0.6"/>
<path d="M8.7014 4.39001C9.787 3.77401 10.8445 3.17299 11.9025 2.57199C12.1483 2.43299 12.3924 2.289 12.6418 2.156C12.6979 2.126 12.7906 2.1 12.8372 2.125C13.2354 2.34 13.6268 2.56799 14.0441 2.80499C13.971 2.85199 13.9202 2.88599 13.8667 2.91699C12.6259 3.62199 11.3836 4.32499 10.1449 5.03399C10.0263 5.10199 9.9411 5.10201 9.8246 5.03201C9.4634 4.81701 9.0948 4.61401 8.7014 4.39001Z" fill="black" fill-opacity="0.6"/>
<path d="M8.2036 5.41002C7.952 5.26802 7.73281 5.152 7.52311 5.02C7.48131 4.994 7.4548 4.91502 7.4532 4.85902C7.4463 4.57302 7.4426 4.28702 7.4553 4.00102C7.4585 3.93402 7.513 3.843 7.5713 3.809C8.901 3.047 10.2339 2.29103 11.5684 1.53603C11.6182 1.50803 11.7018 1.48302 11.7442 1.50502C11.9709 1.62002 12.1896 1.75101 12.439 1.89201C12.3103 1.96601 12.2086 2.02301 12.107 2.08101C10.8768 2.78001 9.6482 3.48002 8.4154 4.17302C8.2571 4.26202 8.18931 4.36403 8.19931 4.54503C8.21421 4.81803 8.2036 5.09202 8.2036 5.41002Z" fill="black" fill-opacity="0.6"/>
<path d="M7.5644 17.02C7.557 17.22 7.44 17.42 7.2244 17.549C6.7727 17.818 6.3194 18.086 5.8545 18.334C5.4155 18.568 4.91929 18.34 4.88379 17.902C4.86309 17.649 4.9664 17.431 5.1819 17.301C5.6596 17.01 6.1399 16.722 6.6377 16.469C7.0788 16.245 7.5644 16.523 7.5644 17.02Z" fill="black" fill-opacity="0.6"/>
<path d="M6.8823 15.57C6.867 15.803 6.7515 16.008 6.5265 16.141C6.079 16.404 5.631 16.668 5.1729 16.913C4.7625 17.132 4.3113 16.96 4.2086 16.568C4.1429 16.318 4.2594 16.022 4.5216 15.865C4.9833 15.586 5.4483 15.311 5.9265 15.063C6.3729 14.831 6.8776 15.098 6.8823 15.57Z" fill="black" fill-opacity="0.6"/>
<path d="M8.8841 18.022C8.8788 18.286 8.749 18.484 8.5271 18.616C8.086 18.877 7.6385 19.128 7.1916 19.38C7.1296 19.415 7.0587 19.438 6.9888 19.455C6.7102 19.525 6.429 19.425 6.2903 19.211C6.1516 18.998 6.1754 18.703 6.3623 18.487C6.4296 18.409 6.5138 18.34 6.6027 18.287C7.0168 18.044 7.4352 17.809 7.8514 17.57C8.0622 17.448 8.283 17.409 8.516 17.495C8.7469 17.58 8.8846 17.781 8.8841 18.022Z" fill="black" fill-opacity="0.6"/>
<path d="M16.4398 9.88101C16.1851 9.88401 15.9844 9.69301 15.9807 9.44501C15.977 9.19901 16.1782 8.99401 16.4255 8.98901C16.6696 8.98401 16.883 9.18799 16.8878 9.42999C16.8931 9.67299 16.6908 9.87801 16.4398 9.88101Z" fill="black" fill-opacity="0.6"/>
<path d="M3.5414 9.88101C3.2893 9.88301 3.0838 9.68698 3.0812 9.44198C3.078 9.20198 3.2872 8.99201 3.5318 8.98901C3.777 8.98501 3.9862 9.18901 3.9888 9.43301C3.991 9.68201 3.7956 9.87901 3.5414 9.88101Z" fill="black" fill-opacity="0.6"/>
</svg>
