<svg width="23" height="27" viewBox="0 0 23 27" fill="none" xmlns="http://www.w3.org/2000/svg">
<g filter="url(#filter0_d_1_49)">
<path d="M18.9985 9.506C18.9985 11.827 19.0006 14.147 18.9975 16.468C18.9959 17.647 18.2794 18.609 17.1755 18.904C16.947 18.965 16.7024 18.995 16.4651 18.995C13.156 19.001 9.8468 19.001 6.5376 18.999C5.1019 18.998 4.0151 17.93 4.0052 16.507C3.998 15.469 4.0037 14.43 4.0037 13.391C4.0037 10.993 4.0104 8.59602 4 6.19802C3.9964 5.33302 4.2835 4.63 4.9456 4.04C6.1404 2.975 7.32061 1.893 8.46611 0.776998C9.03731 0.219998 9.6811 -0.00497964 10.459 2.03639e-05C12.4508 0.0120204 14.4432 0.00404868 16.435 0.00404868C17.9081 0.00504868 18.9939 1.06601 18.997 2.52401C19.0027 4.85101 18.9985 7.179 18.9985 9.506ZM10.3832 13.17C10.4377 13.249 10.4813 13.31 10.5228 13.373C11.0063 14.101 11.4897 14.83 11.9731 15.558C12.3361 16.105 12.9804 16.157 13.4177 15.673C13.9738 15.055 14.5273 14.435 15.0813 13.815C15.5196 13.325 15.9594 12.837 16.3945 12.344C16.6245 12.084 16.6702 11.718 16.5176 11.45C16.382 11.211 16.0565 11.073 15.7221 11.118C15.4993 11.148 15.3269 11.264 15.1805 11.43C14.5699 12.12 13.9572 12.808 13.345 13.496C13.2141 13.643 13.0822 13.79 12.9405 13.949C12.8818 13.865 12.8371 13.804 12.7951 13.741C12.3039 13.002 11.8153 12.262 11.3214 11.524C11.0052 11.052 10.3645 10.972 9.9766 11.37C8.8737 12.5 7.7796 13.639 6.6856 14.779C6.5002 14.971 6.4301 15.209 6.5018 15.472C6.5843 15.774 6.7827 15.974 7.089 16.055C7.3871 16.134 7.642 16.04 7.8482 15.825C8.4381 15.211 9.0232 14.594 9.6105 13.978C9.8634 13.712 10.1168 13.448 10.3832 13.17ZM10.3016 1.58004C9.9859 1.58104 9.74191 1.67104 9.53321 1.86904C8.85551 2.51404 8.1732 3.15502 7.4935 3.79702C6.9779 4.28402 6.4618 4.77201 5.9477 5.26101C5.7634 5.43601 5.6165 5.63304 5.6061 5.90804C5.6632 5.91404 5.7011 5.92102 5.7395 5.92202C6.6986 5.97102 7.6576 6.02001 8.6167 6.06801C9.6152 6.11801 10.299 5.47703 10.3016 4.48403C10.3037 3.59303 10.3022 2.70202 10.3022 1.81002C10.3016 1.74102 10.3016 1.67204 10.3016 1.58004ZM14.4229 7.57302C14.9998 7.57302 15.5767 7.58103 16.1531 7.57003C16.6199 7.56003 16.9164 7.25105 16.92 6.80105C16.9236 6.37405 16.6121 6.00805 16.1904 6.00405C14.9982 5.99205 13.8055 5.99401 12.6128 6.00301C12.2535 6.00601 11.9944 6.24701 11.9212 6.59401C11.8049 7.14501 12.1393 7.56504 12.711 7.57204C13.2821 7.57904 13.8523 7.57302 14.4229 7.57302ZM14.4234 2.84401C13.8403 2.84401 13.2567 2.84003 12.6736 2.84603C12.2161 2.85003 11.9103 3.15801 11.8978 3.61001C11.8853 4.06801 12.1891 4.41104 12.6512 4.41604C13.8242 4.42604 14.9972 4.42404 16.1707 4.41604C16.4771 4.41404 16.7201 4.27504 16.8509 3.98604C17.0991 3.43904 16.7222 2.85103 16.1157 2.84603C15.5512 2.84003 14.9873 2.84401 14.4234 2.84401Z" fill="black" fill-opacity="0.6" shape-rendering="crispEdges"/>
</g>
<defs>
<filter id="filter0_d_1_49" x="-3.05176e-05" y="-6.10352e-05" width="23" height="27.0003" filterUnits="userSpaceOnUse" color-interpolation-filters="sRGB">
<feFlood flood-opacity="0" result="BackgroundImageFix"/>
<feColorMatrix in="SourceAlpha" type="matrix" values="0 0 0 0 0 0 0 0 0 0 0 0 0 0 0 0 0 0 127 0" result="hardAlpha"/>
<feOffset dy="4"/>
<feGaussianBlur stdDeviation="2"/>
<feComposite in2="hardAlpha" operator="out"/>
<feColorMatrix type="matrix" values="0 0 0 0 0 0 0 0 0 0 0 0 0 0 0 0 0 0 0.25 0"/>
<feBlend mode="normal" in2="BackgroundImageFix" result="effect1_dropShadow_1_49"/>
<feBlend mode="normal" in="SourceGraphic" in2="effect1_dropShadow_1_49" result="shape"/>
</filter>
</defs>
</svg>
