<svg width="31" height="25" viewBox="0 0 31 25" fill="none" xmlns="http://www.w3.org/2000/svg">
<path d="M30.4688 14.1719C30.4688 17.8992 27.4477 20.9203 23.7203 20.9203H17.6898V14.9469L17.8945 15.1516C18.3586 15.6156 18.975 15.8711 19.6305 15.8711C20.2859 15.8711 20.9031 15.6156 21.3664 15.1516C22.3234 14.1945 22.3234 12.6367 21.3664 11.6789L16.9703 7.28281C16.5063 6.81875 15.8898 6.56328 15.2344 6.56328C14.5789 6.56328 13.9617 6.81875 13.4984 7.28281L9.10234 11.6789C8.14531 12.6359 8.14531 14.1937 9.10234 15.1516C9.56641 15.6156 10.1828 15.8711 10.8383 15.8711C11.4937 15.8711 12.1109 15.6156 12.5742 15.1516L12.7789 14.9469V20.9203H5.80781C2.6 20.9203 0 18.3203 0 15.1125C0 12.7836 1.37109 10.7758 3.35 9.85C3.13516 9.35938 3.01562 8.81875 3.01562 8.24922C3.01562 6.04062 4.80625 4.25 7.01484 4.25C7.58516 4.25 8.12734 4.37031 8.61797 4.58516C9.87656 1.87734 12.6195 0 15.8023 0C20.0094 0 23.4492 3.28125 23.7055 7.42344H23.7211C27.4484 7.42344 30.4695 10.4445 30.4695 14.1719H30.4688ZM9.65469 14.5992C10.3086 15.2531 11.3688 15.2531 12.0219 14.5992L13.5602 13.0609V23.093C13.5602 24.0172 14.3094 24.7672 15.2344 24.7672C16.1586 24.7672 16.9086 24.018 16.9086 23.093V13.0609L18.4469 14.5992C19.1008 15.2531 20.1609 15.2531 20.8141 14.5992C21.468 13.9453 21.468 12.8852 20.8141 12.232L16.418 7.83594C15.7641 7.18203 14.7039 7.18203 14.0508 7.83594L9.65469 12.232C9.00078 12.8859 9.00078 13.9461 9.65469 14.5992Z" fill="white"/>
</svg>
