<svg width="20" height="21" viewBox="0 0 20 21" fill="none" xmlns="http://www.w3.org/2000/svg">
<path d="M9.99512 0.500027C15.4796 0.487247 19.9905 4.97531 20 10.4652C20.0094 15.9807 15.6086 20.4382 10.1135 20.4994C4.56671 20.5616 0.0391537 16.1369 0.000252319 10.5919C-0.038649 4.9981 4.42556 0.512807 9.99512 0.500027ZM3.98819 10.4997C4.00042 10.6758 4.00987 10.877 4.02876 11.0776C4.37665 14.7333 7.92668 17.2265 11.4828 16.3141C14.6121 15.5112 16.5522 12.3739 15.8603 9.21167C15.5658 7.86419 14.8739 6.74787 13.8047 5.87215C13.4062 5.54542 12.8382 5.74046 12.7277 6.24C12.6615 6.53894 12.7999 6.75398 13.0189 6.94846C14.3054 8.09035 14.87 9.52562 14.6021 11.222C14.1831 13.8714 11.7562 15.5551 9.1165 15.0856C6.68183 14.6527 4.96017 12.1972 5.38586 9.76788C5.59482 8.5771 6.16333 7.59914 7.1053 6.83733C7.42207 6.58117 7.4632 6.17221 7.21812 5.87771C6.97971 5.59154 6.57402 5.55709 6.26781 5.80658C4.78845 7.0107 4.04377 8.57322 3.98819 10.4997ZM9.33101 7.50135C9.33101 8.26538 9.33268 9.02886 9.3299 9.79289C9.32935 10.0318 9.4116 10.2285 9.6061 10.3691C9.82117 10.5252 10.0551 10.5508 10.293 10.4286C10.5442 10.2997 10.6648 10.0852 10.6648 9.80234C10.6642 8.28149 10.6653 6.76065 10.6642 5.24036C10.6637 4.80139 10.3852 4.498 9.99178 4.50134C9.59832 4.50467 9.33213 4.80528 9.33157 5.25148C9.33046 6.00162 9.33101 6.75121 9.33101 7.50135Z" fill="white"/>
</svg>
