<svg width="20" height="20" viewBox="0 0 20 20" fill="none" xmlns="http://www.w3.org/2000/svg">
<path d="M20 6.91388C20 11.0544 20 15.1949 20 19.3354C19.8917 19.6698 19.6698 19.8906 19.3359 19.9995C18.724 19.9995 18.112 19.9995 17.5 19.9995C17.5 16.7126 17.4927 13.4252 17.5073 10.1383C17.5099 9.6034 17.1781 9.16018 16.5318 9.16226C12.1771 9.1758 7.8224 9.1758 3.46823 9.16226C2.82708 9.16018 2.49062 9.59923 2.49271 10.1383C2.50729 13.4252 2.5 16.7126 2.5 19.9995C1.88802 19.9995 1.27604 19.9995 0.664062 19.9995C0.330208 19.8906 0.108333 19.6698 0 19.3354C0 15.1949 0 11.0544 0 6.91388C0.154167 6.75451 0.2875 6.56493 0.466146 6.44098C2.8099 4.81602 5.15885 3.19887 7.50937 1.58329C8.28385 1.05049 9.0651 0.52759 9.84375 0C9.94792 0 10.0521 0 10.1562 0C10.2661 0.0661441 10.3802 0.12708 10.4859 0.199995C13.4984 2.2739 16.5099 4.34989 19.5234 6.42223C19.7182 6.55556 19.8953 6.69774 20 6.91388Z" fill="white"/>
<path d="M10.7031 19.9995C10.4797 19.875 10.4135 19.6849 10.4156 19.4333C10.4255 18.412 10.4193 17.3902 10.4198 16.3688C10.4203 15.9673 10.5573 15.8308 10.9604 15.8298C11.3953 15.8288 11.8297 15.8298 12.2948 15.8298C12.2948 16.0334 12.2932 16.2194 12.2953 16.4053C12.3 16.8095 12.5516 17.0798 12.9198 17.0782C13.2839 17.0766 13.538 16.8022 13.5443 16.4001C13.5474 16.2188 13.5448 16.0376 13.5448 15.8298C13.6839 15.8298 13.8052 15.8298 13.9266 15.8298C14.2714 15.8298 14.6161 15.8246 14.9609 15.8319C15.2479 15.8376 15.4156 15.997 15.4172 16.2819C15.4229 17.3683 15.4193 18.4547 15.4198 19.5417C15.4198 19.763 15.3026 19.9031 15.1172 20C13.6458 19.9995 12.1745 19.9995 10.7031 19.9995Z" fill="white"/>
<path d="M4.88281 19.9995C4.65052 19.8859 4.57552 19.6953 4.57708 19.4438C4.58385 18.4224 4.57969 17.4006 4.58021 16.3793C4.58073 15.9746 4.72656 15.8308 5.13646 15.8298C5.5651 15.8293 5.99323 15.8298 6.45625 15.8298C6.45625 16.0491 6.44948 16.2537 6.45781 16.4584C6.47031 16.7563 6.66094 16.9959 6.925 17.0631C7.19219 17.1308 7.48073 17.0214 7.61198 16.7766C7.66771 16.673 7.69167 16.5444 7.70104 16.4246C7.71562 16.2381 7.70469 16.0496 7.70469 15.8522C7.7625 15.8433 7.80521 15.8308 7.84792 15.8303C8.26458 15.8288 8.68073 15.8262 9.0974 15.8303C9.42292 15.8334 9.57812 15.9871 9.57917 16.31C9.58177 17.3772 9.57604 18.4443 9.58333 19.5109C9.5849 19.7427 9.47865 19.887 9.29687 19.999C7.82552 19.9995 6.35417 19.9995 4.88281 19.9995Z" fill="white"/>
<path d="M9.375 10.8367C9.375 11.0586 9.37135 11.2534 9.37552 11.4481C9.38333 11.8138 9.65312 12.0809 10.0062 12.0778C10.3505 12.0747 10.6146 11.8106 10.6234 11.4539C10.6286 11.2539 10.6245 11.0534 10.6245 10.8388C11.1417 10.8388 11.6411 10.8273 12.1396 10.844C12.3531 10.8513 12.4953 11.0237 12.4964 11.2403C12.501 12.3533 12.5016 13.4668 12.4969 14.5798C12.4958 14.8277 12.3229 14.996 12.0729 14.997C10.6927 15.0007 9.3125 15.0007 7.93229 14.997C7.67187 14.9965 7.5026 14.8267 7.50156 14.5663C7.49792 13.4663 7.49792 12.3658 7.50156 11.2659C7.50208 11.0268 7.64323 10.8492 7.87344 10.8414C8.36615 10.8252 8.85937 10.8367 9.375 10.8367Z" fill="white"/>
</svg>
