<svg width="20" height="21" viewBox="0 0 20 21" fill="none" xmlns="http://www.w3.org/2000/svg">
<path d="M0 11.2807C0 10.9031 0 10.5255 0 10.1479C0.0115156 10.0911 0.0256483 10.0349 0.0342849 9.97755C0.109398 9.48325 0.139495 8.97717 0.265381 8.49622C1.24473 4.75926 3.61091 2.35736 7.30766 1.2633C7.73165 1.1377 8.1763 1.0817 8.63405 0.988806C8.61965 1.19082 8.59898 1.34547 8.59898 1.50012C8.59714 4.19483 8.59191 6.88928 8.60028 9.58399C8.60447 10.8921 9.61234 11.8974 10.9196 11.9011C13.6148 11.9087 16.3097 11.904 19.0048 11.9022C19.1637 11.9022 19.3228 11.8828 19.4893 11.8718C19.4744 11.9927 19.4629 12.0893 19.4505 12.1858C19.4474 12.2117 19.4427 12.2374 19.4382 12.263C19.0211 14.7261 17.8428 16.7483 15.909 18.3275C14.2453 19.6859 12.3269 20.3893 10.1897 20.4887C8.58223 20.5635 7.03443 20.2681 5.59211 19.5522C2.61089 18.0724 0.7896 15.6901 0.15546 12.4158C0.0829643 12.0414 0.0507731 11.6591 0 11.2807Z" fill="white"/>
<path d="M11.4075 0.5C11.7945 0.577455 12.185 0.641304 12.5682 0.734459C14.7572 1.26618 16.5465 2.42565 17.9493 4.18488C18.9287 5.41318 19.5505 6.8079 19.8669 8.34157C19.9248 8.6213 19.9633 8.906 19.9944 9.18991C20.0494 9.69128 19.6942 10.1353 19.1846 10.2131C19.0951 10.2267 19.003 10.2274 18.9122 10.2274C16.2887 10.2282 13.6653 10.2282 11.0418 10.228C10.4988 10.228 10.275 10.0021 10.2747 9.45525C10.2745 6.85814 10.2747 4.26129 10.2747 1.66418C10.2747 0.989591 10.4378 0.746496 11.056 0.5C11.173 0.5 11.2902 0.5 11.4075 0.5Z" fill="white"/>
</svg>
