<svg width="20" height="21" viewBox="0 0 20 21" fill="none" xmlns="http://www.w3.org/2000/svg">
<path d="M0.000148791 10.4993C0.000148791 7.45761 0.000148791 4.41535 0.000148791 1.37368C0.000148791 0.761899 0.256664 0.504807 0.865515 0.504212C1.60173 0.504212 2.33854 0.509568 3.07476 0.500046C3.23367 0.498261 3.28902 0.548251 3.32532 0.699412C3.51399 1.48616 3.71456 2.27053 3.91334 3.0549C3.9925 3.36675 4.08951 3.44114 4.41447 3.44114C5.99879 3.44233 7.58312 3.44233 9.16744 3.44114C9.47871 3.44114 9.5781 3.36318 9.65369 3.06442C9.85485 2.27291 10.0578 1.4814 10.2483 0.687509C10.2828 0.542895 10.3387 0.499451 10.4845 0.500641C11.2582 0.507783 12.0314 0.501831 12.8051 0.504807C13.2639 0.506592 13.5663 0.800582 13.5681 1.25287C13.5716 2.19733 13.5645 3.14179 13.574 4.08625C13.5758 4.24217 13.4996 4.288 13.3824 4.33501C11.6136 5.05035 9.84652 5.77104 8.07531 6.47983C7.89855 6.55065 7.85153 6.63873 7.85213 6.81905C7.85808 8.96089 7.85927 11.1033 7.85451 13.2452C7.85272 13.926 8.14376 14.4009 8.76392 14.6955C10.3131 15.4322 11.8552 16.1833 13.4032 16.923C13.5294 16.9831 13.574 17.0522 13.5728 17.1914C13.5663 18.0395 13.5716 18.8869 13.5687 19.735C13.5669 20.2063 13.2729 20.4991 12.7991 20.4991C8.79011 20.5003 4.78109 20.5003 0.772075 20.4991C0.291183 20.4991 0.000743953 20.2021 0.000743953 19.7141C-0.000446372 16.6427 0.000148791 13.5713 0.000148791 10.4993ZM2.8486 8.35922C3.63659 8.36279 4.28353 7.72125 4.28472 6.93391C4.28532 6.15489 3.65326 5.51216 2.87657 5.50383C2.08679 5.4955 1.43568 6.13168 1.42973 6.91724C1.42318 7.70637 2.06239 8.35565 2.8486 8.35922ZM4.28472 11.2069C4.28056 10.4201 3.63183 9.78216 2.84265 9.7887C2.06536 9.79525 1.43092 10.4356 1.42973 11.214C1.42854 12.0014 2.0737 12.6453 2.8611 12.6441C3.64731 12.6423 4.28889 11.9954 4.28472 11.2069ZM4.28472 15.5114C4.28889 14.7223 3.64909 14.0754 2.86169 14.0736C2.08203 14.0718 1.43866 14.7038 1.42973 15.4799C1.4208 16.2696 2.05644 16.9224 2.84146 16.929C3.63005 16.9361 4.27996 16.2975 4.28472 15.5114Z" fill="white"/>
<path d="M13.927 16.2136C13.3479 15.9548 12.8009 15.7102 12.2534 15.4656C11.2029 14.9966 10.1542 14.5247 9.10078 14.0623C8.73892 13.9034 8.56573 13.651 8.56692 13.2505C8.57347 11.4521 8.5699 9.65302 8.5699 7.85456C8.5699 7.79564 8.5699 7.73613 8.5699 7.65162C8.65917 7.68614 8.73297 7.71113 8.80379 7.74208C10.4453 8.4711 12.0855 9.20251 13.7288 9.92677C13.8787 9.99283 13.9317 10.0696 13.9311 10.238C13.924 12.1484 13.9264 14.0587 13.9264 15.9684C13.927 16.0351 13.927 16.1018 13.927 16.2136Z" fill="white"/>
<path d="M19.9887 7.654C19.9923 7.73018 19.9976 7.78731 19.9976 7.84444C19.9982 9.65183 19.9952 11.4598 20 13.2672C20.0012 13.6475 19.8369 13.8974 19.4917 14.051C17.9306 14.7443 16.3719 15.4424 14.812 16.1387C14.7661 16.1595 14.7185 16.1761 14.6525 16.2029C14.6483 16.1196 14.6417 16.0559 14.6417 15.9928C14.6411 14.0664 14.6429 12.1394 14.6382 10.213C14.6382 10.0779 14.6691 10.0053 14.803 9.94641C16.4814 9.20727 18.1568 8.46039 19.8333 7.7159C19.8792 7.69507 19.9268 7.6784 19.9887 7.654Z" fill="white"/>
<path d="M19.5965 7.02972C19.4917 7.07971 19.4155 7.11899 19.337 7.15351C17.7152 7.87479 16.0939 8.59668 14.4697 9.31201C14.3793 9.35189 14.2466 9.37271 14.162 9.33582C12.4688 8.59251 10.7803 7.83909 9.09066 7.08804C9.06031 7.07435 9.03115 7.0571 8.97103 7.02496C9.0859 6.9714 9.16982 6.92974 9.25612 6.89225C10.8041 6.22512 12.3527 5.55977 13.8996 4.88966C14.137 4.78671 14.3626 4.75874 14.6084 4.86526C16.2302 5.56751 17.8538 6.26499 19.4768 6.96426C19.5084 6.97735 19.5376 6.99639 19.5965 7.02972Z" fill="white"/>
<path d="M9.55727 0.514924C9.37158 1.25823 9.19006 1.98368 9.00615 2.71687C7.52717 2.71687 6.05831 2.71687 4.56386 2.71687C4.38174 1.98964 4.19843 1.25942 4.01155 0.514924C5.8625 0.514924 7.69441 0.514924 9.55727 0.514924Z" fill="white"/>
</svg>
