<svg width="20" height="19" viewBox="0 0 20 19" fill="none" xmlns="http://www.w3.org/2000/svg">
<path d="M16.6186 9.50398C16.2735 9.50398 15.9958 9.51319 15.7192 9.49856C15.6312 9.49368 15.5127 9.44491 15.4714 9.37772C15.4377 9.32298 15.4736 9.19347 15.5209 9.12627C16.1822 8.18336 16.8501 7.24479 17.519 6.30729C17.6668 6.10029 17.7994 6.10191 17.9483 6.31109C18.6124 7.2437 19.2765 8.17686 19.9335 9.11435C19.984 9.18642 20.0204 9.31865 19.9873 9.38422C19.9547 9.44925 19.827 9.49206 19.7373 9.49856C19.5216 9.51482 19.3042 9.50398 19.0673 9.50398C19.0526 9.72453 19.0401 9.93804 19.0243 10.151C18.8281 12.7375 17.7576 14.8992 15.8219 16.6246C14.3857 17.9046 12.6983 18.6784 10.7887 18.9157C8.01129 19.2615 5.5224 18.544 3.37642 16.7476C1.58638 15.2492 0.485947 13.3266 0.128374 11.0256C-0.320495 8.13513 0.407694 5.54213 2.31403 3.31111C3.80464 1.56565 5.71097 0.509476 7.97759 0.133396C9.95457 -0.194455 11.8571 0.0835409 13.6678 0.950585C13.9362 1.07902 13.9531 1.1939 13.7406 1.40687C13.3097 1.83876 12.8706 2.26362 12.4467 2.70256C12.2565 2.89927 12.0674 2.93341 11.8076 2.8467C8.41233 1.71196 4.80345 3.20057 3.19546 6.39183C1.30597 10.1407 3.23133 14.8135 7.21789 16.1548C11.28 17.5209 15.5252 15.123 16.4322 10.9389C16.5316 10.4794 16.5555 10.0042 16.6186 9.50398Z" fill="white"/>
<path d="M8.74056 10.1575C9.31061 9.60965 9.85404 9.09918 10.3833 8.57516C10.9952 7.96931 11.5897 7.34558 12.2022 6.73973C12.7548 6.19295 13.6613 6.42218 13.8623 7.157C13.9699 7.55042 13.8493 7.88586 13.5629 8.17469C12.6701 9.07533 11.7826 9.9814 10.8914 10.8837C10.4529 11.3275 10.0127 11.7697 9.57091 12.2102C9.08292 12.6969 8.51504 12.6985 8.03085 12.2162C7.1755 11.3643 6.31798 10.5146 5.46752 9.65788C4.90779 9.0943 5.12516 8.19149 5.86965 7.98503C6.25385 7.87827 6.59241 7.98069 6.87553 8.26465C7.45536 8.84503 8.03791 9.42324 8.61775 10.0042C8.66992 10.0556 8.71067 10.1196 8.74056 10.1575Z" fill="white"/>
</svg>
