<svg width="21" height="21" viewBox="0 0 21 21" fill="none" xmlns="http://www.w3.org/2000/svg">
<path d="M16.118 13.6552C16.0198 13.6964 15.9523 13.7146 15.8958 13.75C15.7576 13.8372 15.6511 13.8029 15.5337 13.7013C15.3176 13.514 15.0636 13.4171 14.7756 13.5166C14.6565 13.5578 14.5424 13.629 14.4448 13.7088C14.3087 13.8201 14.1886 13.9501 14.0641 14.0748C13.7475 14.3911 13.7256 14.7721 14.0004 15.1248C14.1458 15.311 14.1529 15.562 13.9889 15.7188C13.9319 15.7734 13.8156 15.7772 13.7245 15.7873C13.3745 15.8264 13.1051 15.9966 13.047 16.3332C12.9932 16.6436 12.9976 16.9743 13.0426 17.2874C13.0898 17.617 13.3805 17.8113 13.7536 17.8493C13.8655 17.8605 13.9933 17.8375 14.0339 17.9911C14.0767 18.1522 14.2144 18.2823 14.0383 18.476C13.6943 18.8549 13.7344 19.2316 14.1025 19.5934C14.204 19.6929 14.3043 19.7936 14.408 19.8915C14.7531 20.2195 15.1311 20.2388 15.5151 19.9493C15.6149 19.8744 15.6923 19.7775 15.8541 19.8578C16.022 19.9407 16.1992 19.9841 16.1761 20.2244C16.1684 20.3073 16.2019 20.3935 16.2206 20.4989C16.1438 20.4989 16.0768 20.4989 16.0105 20.4989C11.1763 20.4984 6.3416 20.4984 1.50744 20.4968C0.569353 20.4962 -0.0280595 19.9081 0.00101563 18.9962C0.0119874 18.6499 0.0333823 18.2972 0.111282 17.9612C0.683459 15.5021 2.22773 13.9335 4.70955 13.241C5.13744 13.1217 5.57193 13.0243 5.99708 12.898C6.52537 12.7412 6.9807 12.8429 7.38391 13.2073C7.77396 13.56 8.20734 13.85 8.70601 14.039C9.57662 14.3686 10.4187 14.2841 11.2142 13.8308C11.5428 13.6435 11.85 13.4101 12.1358 13.164C12.5231 12.83 12.9482 12.6994 13.4447 12.837C14.2336 13.0553 15.0203 13.2828 15.8064 13.5107C15.9035 13.5391 15.9913 13.5953 16.118 13.6552Z" fill="white"/>
<path d="M9.7582 6.50493C9.04558 6.50493 8.33242 6.49315 7.62035 6.50814C6.89512 6.52312 6.2829 6.27641 5.74967 5.81296C5.62185 5.70165 5.50555 5.57374 5.36456 5.48223C5.17804 5.36129 5.14896 5.20234 5.155 5.0038C5.19559 3.71459 5.63392 2.55436 6.39097 1.51453C6.86714 0.860566 7.56165 0.533046 8.38234 0.514851C9.29355 0.49505 10.2053 0.49505 11.1165 0.514851C11.9696 0.533581 12.6778 0.881437 13.1611 1.57073C13.8869 2.60466 14.3197 3.74563 14.351 5.0145C14.3559 5.20448 14.3 5.33292 14.1546 5.48063C13.3866 6.2625 12.4721 6.60768 11.3606 6.51296C10.8307 6.468 10.2925 6.50546 9.7582 6.50493Z" fill="white"/>
<path d="M14.6938 5.59034C15.0932 6.05272 14.825 6.75913 14.2149 6.88061C14.08 6.90737 14.0438 6.95072 14.0284 7.07916C13.8655 8.46523 13.5314 9.801 12.7634 11.0019C12.302 11.7233 11.709 12.3173 10.9432 12.7337C10.1493 13.1656 9.34566 13.1682 8.55295 12.7374C7.37184 12.0958 6.63619 11.0865 6.13862 9.8909C5.75461 8.96775 5.55492 8.00071 5.44301 7.01387C5.43917 6.98122 5.43368 6.94911 5.42984 6.91968C4.68925 6.73023 4.39904 6.13192 4.8061 5.58766C4.93337 5.69523 5.06284 5.79851 5.18572 5.90876C5.59113 6.2732 6.01025 6.62534 6.54841 6.78054C6.84684 6.8667 7.16448 6.92931 7.47388 6.93199C8.99566 6.94697 10.518 6.93841 12.0398 6.93895C12.8045 6.93948 13.4496 6.64835 14.018 6.17045C14.2456 5.97993 14.4684 5.78406 14.6938 5.59034Z" fill="white"/>
<path d="M18.8 14.3493C18.9514 14.2316 19.0941 14.116 19.2411 14.0074C19.4205 13.8752 19.5516 13.8821 19.7167 14.0336C19.8462 14.1529 19.9724 14.276 20.0947 14.4023C20.2264 14.5383 20.2357 14.687 20.1172 14.8363C20.0003 14.9846 19.8802 15.1301 19.7754 15.2591C19.8857 15.5412 19.9866 15.8087 20.0985 16.0715C20.1166 16.1138 20.1814 16.1544 20.2307 16.163C20.392 16.1914 20.5572 16.2005 20.7195 16.2256C20.9 16.2535 20.9977 16.3605 20.9988 16.5414C21.0004 16.7217 21.0004 16.9026 20.9988 17.083C20.9971 17.2735 20.8918 17.4062 20.7036 17.4014C20.2818 17.3912 20.0744 17.5544 19.9263 17.9628C19.8127 18.2769 19.8012 18.4637 20.0349 18.7024C20.2812 18.9539 20.2576 19.0668 20.008 19.3119C19.9065 19.4114 19.8067 19.5126 19.7019 19.6089C19.562 19.7374 19.3854 19.7647 19.2608 19.6293C18.9641 19.3066 18.6848 19.3189 18.2887 19.496C17.9821 19.633 17.8521 19.7631 17.8444 20.0852C17.8356 20.4347 17.7286 20.5016 17.3616 20.5C17.2793 20.4994 17.1971 20.4968 17.1148 20.4957C16.7011 20.4909 16.6249 20.4497 16.6073 20.0451C16.5942 19.739 16.496 19.5661 16.1761 19.5174C16.0653 19.5003 15.9523 19.4441 15.8601 19.3788C15.7076 19.2712 15.604 19.3119 15.4696 19.4195C14.9681 19.8208 14.9643 19.816 14.504 19.367C14.4651 19.329 14.4256 19.2926 14.3877 19.2536C14.2204 19.0807 14.1946 18.9298 14.3702 18.7623C14.6489 18.4963 14.6637 18.2657 14.5051 17.9023C14.3526 17.5534 14.1815 17.4073 13.8106 17.4062C13.5473 17.4057 13.4595 17.2911 13.4562 17.0401C13.454 16.8866 13.454 16.7324 13.4562 16.5788C13.4601 16.3492 13.5462 16.2518 13.7793 16.2171C13.9214 16.1962 14.0679 16.1957 14.2067 16.1625C14.2687 16.148 14.3378 16.0865 14.3663 16.0292C14.4689 15.8189 14.5616 15.6032 14.6445 15.3849C14.6653 15.3303 14.6582 15.2447 14.6264 15.1965C14.5452 15.0734 14.4426 14.9637 14.3493 14.8481C14.2243 14.694 14.2243 14.5415 14.3658 14.3986C14.4942 14.2685 14.6247 14.1401 14.7586 14.0159C14.8985 13.8859 15.0504 13.8811 15.2035 13.9967C15.3549 14.1112 15.5047 14.2279 15.6369 14.3301C15.9205 14.2225 16.1882 14.1262 16.451 14.017C16.5009 13.9967 16.5514 13.9308 16.5623 13.8784C16.5936 13.728 16.6051 13.5739 16.6238 13.4214C16.6474 13.2303 16.7642 13.1372 16.9546 13.1324C17.1395 13.1276 17.3249 13.1276 17.5097 13.1329C17.6908 13.1383 17.8043 13.2276 17.8312 13.4091C17.8597 13.6001 17.8296 13.8356 17.9349 13.9694C18.0331 14.0941 18.2772 14.1064 18.4533 14.1776C18.5669 14.2247 18.6733 14.2862 18.8 14.3493ZM17.2294 15.4753C16.4702 15.4737 15.8525 16.0667 15.847 16.802C15.8415 17.5443 16.4636 18.1592 17.2234 18.1618C17.975 18.1645 18.5987 17.5619 18.6031 16.8277C18.608 16.0758 17.9996 15.4769 17.2294 15.4753Z" fill="white"/>
<path d="M18.2547 20.4839C18.263 20.1746 18.2844 19.8701 18.6634 19.8524C18.8115 19.8455 18.9662 19.9696 19.144 20.0451C18.8697 20.3164 18.5916 20.4513 18.2547 20.4839Z" fill="white"/>
</svg>
