<svg width="20" height="21" viewBox="0 0 20 21" fill="none" xmlns="http://www.w3.org/2000/svg">
<path d="M10.0247 0.5C10.3917 0.715625 10.7587 0.931771 11.1257 1.1474C11.1919 1.18646 11.2575 1.22604 11.3433 1.27708C11.2708 1.32292 11.2189 1.35937 11.1638 1.39062C9.92835 2.09323 8.69078 2.79323 7.45797 3.5C7.33246 3.57187 7.24297 3.57135 7.11958 3.49792C6.73618 3.26823 6.34431 3.0526 5.9249 2.81406C6.00592 2.7651 6.06841 2.72552 6.13249 2.68906C7.351 1.99687 8.57004 1.30521 9.78855 0.611979C9.84415 0.580729 9.89287 0.538021 9.94477 0.500521C9.97178 0.5 9.99825 0.5 10.0247 0.5Z" fill="white"/>
<path d="M8.03889 20.5C7.78682 20.3974 7.58453 20.2464 7.57924 19.9521C7.57341 19.6495 7.73916 19.4411 7.99865 19.2943C8.40482 19.0641 8.80887 18.8302 9.21451 18.5984C9.24893 18.5786 9.28388 18.5604 9.31989 18.5443C9.65139 18.3938 10.0163 18.4802 10.182 18.7474C10.352 19.0214 10.2588 19.3937 9.95324 19.6031C9.78008 19.7214 9.59314 19.8203 9.40939 19.9224C9.05988 20.1172 8.70825 20.3078 8.35769 20.5C8.25072 20.5 8.1448 20.5 8.03889 20.5Z" fill="white"/>
<path d="M10.2906 19.7646C10.6374 19.2896 10.6798 18.8849 10.4335 18.5375C10.1815 18.1818 9.77266 18.0755 9.20445 18.2271C9.25105 17.8677 9.17003 17.5526 8.87083 17.3245C8.57957 17.1021 8.24966 17.0943 7.88638 17.1849C7.94728 16.5734 7.67562 16.1984 7.08304 16.0734C7.12488 15.924 7.18472 15.7828 7.20007 15.637C7.23661 15.3 7.11005 15.0203 6.82303 14.8286C6.48623 14.6036 6.12137 14.5964 5.76921 14.7776C5.37151 14.9828 4.98917 15.2167 4.59995 15.438C4.53799 15.4734 4.47497 15.5078 4.35053 15.5776C4.33146 15.2661 4.28698 14.9964 4.30816 14.7312C4.32352 14.5385 4.27586 14.4349 4.11117 14.338C3.65787 14.0714 3.21463 13.7885 2.74968 13.5016C3.49212 12.3391 4.2282 11.1859 4.97223 10.0203C5.44512 10.3125 5.90531 10.5922 6.35967 10.8813C6.49894 10.9698 6.60167 10.9792 6.74942 10.8771C7.20484 10.5615 7.72275 10.5318 8.2523 10.6255C8.75909 10.7156 9.22245 10.9182 9.68529 11.1927C9.61697 11.2432 9.5619 11.2854 9.50524 11.3255C9.08583 11.6208 8.65953 11.9078 8.24807 12.2135C7.7757 12.5641 7.59248 13.0771 7.73969 13.5703C7.97376 14.3536 8.85706 14.6536 9.58202 14.1859C9.92465 13.9651 10.2524 13.7214 10.5871 13.488C10.7598 13.3677 10.9324 13.2474 11.0881 13.138C12.2219 13.975 13.443 14.6604 14.6144 15.4208C14.8516 15.575 15.0958 15.7188 15.3314 15.875C15.4236 15.9359 15.5141 16.0073 15.583 16.0917C15.7731 16.3234 15.789 16.6219 15.6364 16.8354C15.4808 17.0531 15.1747 17.1401 14.8882 17.037C14.7902 17.0016 14.6975 16.9469 14.6086 16.8917C13.8926 16.4474 13.1782 16.0005 12.4633 15.5552C12.413 15.524 12.3606 15.4745 12.3087 15.474C12.2468 15.474 12.1636 15.5021 12.1287 15.5469C12.1011 15.5823 12.1149 15.6734 12.1435 15.7193C12.1753 15.7703 12.2441 15.8005 12.2992 15.8349C13.0739 16.3214 13.8513 16.8042 14.6223 17.2958C14.741 17.3719 14.8543 17.475 14.9316 17.5911C15.0762 17.8083 15.0862 18.0464 14.9332 18.2698C14.7966 18.4687 14.517 18.5635 14.2612 18.4859C14.1314 18.4469 14.0054 18.3792 13.8926 18.3031C13.1449 17.7995 12.4014 17.2901 11.6563 16.7828C11.6076 16.7495 11.5583 16.6953 11.507 16.6922C11.4392 16.688 11.3454 16.7052 11.3063 16.75C11.2761 16.7844 11.2973 16.8833 11.3259 16.9391C11.3497 16.9854 11.4159 17.012 11.4646 17.0453C12.0847 17.4672 12.7075 17.8859 13.3239 18.313C13.4404 18.3938 13.5548 18.4938 13.6315 18.6094C13.7766 18.8271 13.7856 19.0641 13.631 19.2875C13.4928 19.487 13.2169 19.5802 12.9585 19.5021C12.8287 19.463 12.7001 19.3979 12.591 19.3182C11.9047 18.8198 11.2236 18.3141 10.5405 17.8104C10.4982 17.7792 10.4579 17.7313 10.4108 17.724C10.3478 17.7141 10.2456 17.7141 10.2212 17.75C10.1873 17.8005 10.1942 17.8917 10.2122 17.9573C10.2233 17.9984 10.2874 18.026 10.3292 18.0578C10.871 18.4641 11.4138 18.8698 11.9555 19.276C12.0132 19.3193 12.072 19.3625 12.1234 19.413C12.3606 19.6453 12.4088 19.9937 12.2404 20.2323C12.0731 20.4687 11.7119 20.5583 11.4185 20.4052C11.0404 20.2073 10.6756 19.9849 10.2906 19.7646Z" fill="white"/>
<path d="M14.9983 10.0214C15.7402 11.1828 16.4742 12.3328 17.2198 13.5C16.9709 13.6547 16.7268 13.8063 16.4822 13.9578C16.3815 14.0203 16.2841 14.0896 16.1787 14.1432C15.8382 14.3161 15.557 14.4953 15.6756 14.9677C15.7244 15.1609 15.6116 15.3932 15.5671 15.6375C14.5524 14.999 13.5807 14.3875 12.6413 13.7969C13.0194 13.649 13.4022 13.5005 13.783 13.3484C13.8375 13.3266 13.9053 13.301 13.9318 13.2568C13.9699 13.1937 13.9752 13.112 13.9948 13.0385C13.9202 13.0203 13.8333 12.9693 13.7729 12.9906C13.6315 13.0406 13.506 13.1323 13.3684 13.1953C13.0284 13.35 12.6757 13.4505 12.2939 13.4094C11.8957 13.3661 11.5769 13.1854 11.3502 12.8635C11.2411 12.7089 11.141 12.6995 10.9906 12.8068C10.4876 13.1661 9.97866 13.5177 9.47135 13.8714C9.24946 14.026 9.00851 14.1297 8.72944 14.0797C8.16705 13.9786 7.8562 13.3833 8.11091 12.8792C8.17976 12.7432 8.27613 12.5995 8.39952 12.5141C9.14461 11.9974 9.88122 11.4646 10.6597 11.0005C11.2311 10.6599 11.8819 10.4891 12.5634 10.6229C12.797 10.6687 13.0263 10.7745 13.2344 10.8917C13.3726 10.9693 13.4647 10.9719 13.5918 10.8911C14.0536 10.599 14.5196 10.3161 14.9983 10.0214Z" fill="white"/>
<path d="M10.1555 10.0021C10.1518 9.92448 10.1476 9.86823 10.1476 9.8125C10.1471 8.40052 10.1476 6.98854 10.1471 5.57656C10.1471 5.47865 10.1439 5.39896 10.2577 5.3349C11.5371 4.61562 12.8118 3.88854 14.088 3.16406C14.1198 3.14583 14.1558 3.13385 14.2082 3.11094C14.213 3.18594 14.2194 3.24219 14.2194 3.29844C14.2199 4.71042 14.2188 6.1224 14.2215 7.53385C14.2215 7.64687 14.2008 7.72396 14.0891 7.78698C12.8219 8.50104 11.5578 9.22083 10.2927 9.93802C10.2551 9.96094 10.2133 9.97604 10.1555 10.0021Z" fill="white"/>
<path d="M5.75015 3.08906C6.21722 3.35365 6.64669 3.59323 7.0698 3.84323C7.10899 3.86615 7.12223 3.95469 7.12329 4.01302C7.12805 4.33854 7.13017 4.66406 7.12329 4.98906C7.12064 5.11354 7.15983 5.19635 7.27262 5.25885C7.59565 5.43698 7.91286 5.625 8.23483 5.80365C8.41858 5.90573 8.5282 5.84531 8.53244 5.63646C8.53879 5.32656 8.53403 5.01615 8.53403 4.66927C8.96721 4.91563 9.36596 5.1401 9.76154 5.37135C9.79596 5.39115 9.82032 5.45573 9.82032 5.49948C9.8235 6.98958 9.82297 8.47969 9.82297 10.0062C9.74248 9.96719 9.68052 9.94115 9.6228 9.90781C8.39158 9.20938 7.16248 8.50781 5.92914 7.81354C5.79887 7.7401 5.74591 7.66354 5.74644 7.51042C5.75332 6.11771 5.75068 4.725 5.75068 3.33229C5.75015 3.26823 5.75015 3.20365 5.75015 3.08906Z" fill="white"/>
<path d="M20 12.874C19.9259 12.9641 19.8681 13.0792 19.7739 13.1401C19.3211 13.4328 18.8593 13.7125 18.3991 13.9943C18.1481 14.1479 17.9999 14.1125 17.8383 13.8599C17.1129 12.7266 16.3895 11.5922 15.665 10.4578C15.4225 10.0781 15.1789 9.69844 14.9385 9.31719C14.7738 9.05677 14.8077 8.91719 15.0741 8.75156C15.5157 8.47708 15.9579 8.20417 16.4006 7.93229C16.6564 7.77552 16.8137 7.8125 16.9768 8.06771C17.9406 9.57604 18.9038 11.0844 19.8655 12.5937C19.9137 12.6693 19.9439 12.7552 20 12.874ZM16.4318 8.66615C15.9997 8.66719 15.6539 9.01042 15.6539 9.43802C15.6534 9.86615 16.0003 10.2078 16.434 10.2062C16.8666 10.2047 17.2145 9.86146 17.214 9.43594C17.2135 9.01146 16.8618 8.6651 16.4318 8.66615Z" fill="white"/>
<path d="M1.84413 14.1182C1.72498 14.0651 1.64873 14.0411 1.58306 14.001C1.12817 13.7229 0.674872 13.4427 0.22263 13.1609C-0.0273208 13.0052 -0.0622716 12.8536 0.0950069 12.6062C1.06092 11.0917 2.02736 9.5776 2.99486 8.06406C3.15744 7.8099 3.31313 7.77604 3.57208 7.9349C4.01532 8.20677 4.4575 8.47969 4.89862 8.75417C5.16181 8.91771 5.19464 9.05937 5.0273 9.32135C4.0651 10.8307 3.10342 12.3401 2.13486 13.8453C2.06496 13.9557 1.93945 14.0318 1.84413 14.1182ZM4.31558 9.44635C4.31928 9.01771 3.97825 8.6724 3.54613 8.66615C3.11666 8.66042 2.75974 9.00469 2.75603 9.4276C2.75232 9.85521 3.09336 10.1995 3.5276 10.2062C3.95971 10.2135 4.31187 9.87396 4.31558 9.44635Z" fill="white"/>
<path d="M8.70137 4.3901C9.78696 3.77396 10.8445 3.17292 11.9025 2.5724C12.1483 2.43281 12.3924 2.28906 12.6418 2.15573C12.6979 2.12552 12.7906 2.1 12.8372 2.125C13.2354 2.3401 13.6268 2.56771 14.0441 2.80521C13.971 2.85156 13.9202 2.88646 13.8667 2.91719C12.6259 3.6224 11.3836 4.325 10.1449 5.03437C10.0263 5.10208 9.94106 5.10208 9.82456 5.03229C9.4634 4.81667 9.09483 4.61406 8.70137 4.3901Z" fill="white"/>
<path d="M8.20359 5.41042C7.95205 5.26823 7.73281 5.15156 7.5231 5.02031C7.48127 4.99427 7.45479 4.91458 7.4532 4.85937C7.44632 4.57344 7.44261 4.28698 7.45532 4.00104C7.4585 3.93437 7.51304 3.84323 7.57129 3.80937C8.90101 3.04687 10.2339 2.29062 11.5684 1.53594C11.6182 1.50781 11.7018 1.48333 11.7442 1.50469C11.9709 1.62031 12.1896 1.75104 12.439 1.89219C12.3103 1.96562 12.2086 2.02344 12.107 2.08125C10.8768 2.77969 9.64822 3.48021 8.41541 4.17292C8.25707 4.26198 8.18929 4.36406 8.19935 4.54479C8.21418 4.81823 8.20359 5.09167 8.20359 5.41042Z" fill="white"/>
<path d="M7.56441 17.0203C7.557 17.2203 7.43996 17.4203 7.22443 17.549C6.77272 17.8182 6.31942 18.0865 5.85447 18.3339C5.41547 18.5677 4.91927 18.3396 4.88379 17.9021C4.86314 17.649 4.9664 17.4312 5.18193 17.3005C5.65959 17.0104 6.1399 16.7219 6.63768 16.4687C7.07881 16.2448 7.56441 16.5229 7.56441 17.0203Z" fill="white"/>
<path d="M6.88234 15.5698C6.86698 15.8026 6.75154 16.0083 6.52648 16.1406C6.079 16.4042 5.631 16.6682 5.17293 16.913C4.76252 17.1323 4.31134 16.9604 4.20861 16.5682C4.14294 16.3182 4.25944 16.0224 4.52157 15.8646C4.98335 15.5865 5.4483 15.3115 5.92649 15.063C6.37291 14.8312 6.87757 15.0984 6.88234 15.5698Z" fill="white"/>
<path d="M8.88407 18.0219C8.87877 18.2859 8.74903 18.4839 8.52714 18.6156C8.08602 18.8771 7.63855 19.1281 7.1916 19.3802C7.12964 19.4151 7.05868 19.438 6.98878 19.4552C6.71023 19.525 6.42904 19.425 6.2903 19.2115C6.15155 18.9979 6.17538 18.7026 6.36232 18.487C6.42957 18.4094 6.51377 18.3401 6.60273 18.2875C7.01685 18.0443 7.4352 17.8089 7.85143 17.5698C8.06219 17.4484 8.28302 17.4094 8.51602 17.4953C8.74691 17.5797 8.88459 17.7813 8.88407 18.0219Z" fill="white"/>
<path d="M16.4398 9.88073C16.1851 9.88385 15.9844 9.69323 15.9807 9.44479C15.977 9.19948 16.1782 8.99375 16.4255 8.98906C16.6696 8.98438 16.883 9.18802 16.8878 9.43021C16.8931 9.67344 16.6908 9.8776 16.4398 9.88073Z" fill="white"/>
<path d="M3.54136 9.88073C3.2893 9.88281 3.08383 9.68698 3.08118 9.44219C3.078 9.20208 3.28718 8.99219 3.53183 8.98854C3.77702 8.98542 3.98619 9.18906 3.98884 9.43281C3.99096 9.68229 3.79555 9.87865 3.54136 9.88073Z" fill="white"/>
</svg>
