<svg width="15" height="19" viewBox="0 0 15 19" fill="none" xmlns="http://www.w3.org/2000/svg">
<path d="M14.9985 9.50573C14.9985 11.8266 15.0006 14.147 14.9975 16.4679C14.9959 17.6468 14.2794 18.6087 13.1755 18.9042C12.947 18.9652 12.7024 18.9955 12.4651 18.9955C9.15595 19.0011 5.84678 19.0006 2.5376 18.9986C1.10188 18.9981 0.0150923 17.93 0.00522655 16.5069C-0.00204294 15.4685 0.0036688 14.4297 0.0036688 13.3913C0.0036688 10.9935 0.010419 8.59616 3.40552e-05 6.19832C-0.00360069 5.33338 0.283544 4.62952 0.945586 4.03955C2.14038 2.97505 3.32063 1.89258 4.46609 0.776775C5.03727 0.220153 5.68114 -0.00454752 6.45897 6.96176e-05C8.45081 0.011869 10.4432 0.00366073 12.435 0.00417374C13.9081 0.00468676 14.9939 1.0656 14.997 2.52411C15.0027 4.85114 14.9985 7.1787 14.9985 9.50573ZM6.38316 13.1702C6.43768 13.2487 6.4813 13.3103 6.52284 13.3728C7.00626 14.1013 7.48968 14.8298 7.9731 15.5583C8.33606 16.1052 8.98045 16.1575 9.41765 15.6727C9.97377 15.055 10.5273 14.4348 11.0813 13.8151C11.5196 13.3251 11.9594 12.8367 12.3945 12.3442C12.6245 12.0836 12.6702 11.7179 12.5176 11.4495C12.382 11.211 12.0565 11.073 11.7221 11.1181C11.4993 11.1479 11.3269 11.2644 11.1805 11.4295C10.5699 12.1195 9.95715 12.8075 9.34496 13.496C9.21411 13.6432 9.08222 13.7904 8.94046 13.9495C8.88179 13.8653 8.83713 13.8043 8.79507 13.7412C8.30386 13.0024 7.81525 12.2617 7.32144 11.5244C7.00522 11.0525 6.36447 10.9719 5.97659 11.3695C4.87371 12.5002 3.77965 13.6391 2.68559 14.7785C2.50022 14.9714 2.43012 15.2094 2.50178 15.4721C2.58434 15.7743 2.78269 15.9738 3.08905 16.0549C3.3871 16.1339 3.64205 16.04 3.84819 15.8251C4.43806 15.2115 5.02325 14.5938 5.61052 13.9782C5.86339 13.7125 6.11679 13.4483 6.38316 13.1702ZM6.30164 1.58016C5.98594 1.58118 5.74189 1.67096 5.53315 1.8695C4.85553 2.51436 4.17324 3.1546 3.49354 3.7969C2.97793 4.28426 2.46179 4.77163 1.94774 5.26104C1.7634 5.4365 1.61646 5.63298 1.60607 5.90796C1.66319 5.91411 1.70109 5.92078 1.73952 5.92232C2.69857 5.97106 3.65762 6.01979 4.61668 6.06802C5.61519 6.11829 6.29904 5.47702 6.30164 4.48383C6.30372 3.59272 6.30216 2.70161 6.30216 1.80999C6.30164 1.74124 6.30164 1.67199 6.30164 1.58016ZM10.4229 7.5732C10.4229 7.57269 10.4229 7.57269 10.4229 7.57218C10.9998 7.57218 11.5767 7.5809 12.1531 7.56961C12.6199 7.56038 12.9164 7.25103 12.92 6.8006C12.9236 6.37377 12.6121 6.00799 12.1904 6.00389C10.9982 5.99158 9.80553 5.99414 8.61282 6.00338C8.2535 6.00594 7.99439 6.24706 7.92118 6.59386C7.80487 7.14484 8.13926 7.565 8.71095 7.57218C9.28213 7.57885 9.85226 7.5732 10.4229 7.5732ZM10.4234 2.84423C9.84032 2.84423 9.25669 2.84012 8.67357 2.84577C8.21611 2.85038 7.91027 3.15768 7.89781 3.61016C7.88535 4.06777 8.18911 4.41149 8.65124 4.41559C9.82423 4.42585 10.9972 4.4238 12.1707 4.41611C12.4771 4.41406 12.7201 4.27451 12.8509 3.9862C13.0991 3.43881 12.7222 2.85141 12.1157 2.84577C11.5512 2.84012 10.9873 2.84423 10.4234 2.84423Z" fill="white"/>
</svg>
